<?xml version="1.0" encoding="UTF-8" standalone="no"?>
<svg version="1.1" xmlns="http://www.w3.org/2000/svg" xmlns:xlink="http://www.w3.org/1999/xlink" width="207" height="905">
	<g id="dp_dp001" transform="matrix(1,0,0,1,-484.647,-78.1053)">
		<path id="dp_path002" fill="#999999" fill-rule="evenodd" stroke="black" stroke-width="1.33333" d="M 568.577,771.04 C 581.397,771.04 594.216,771.04 607.033,771.04 C 607.033,818.132 606.915,864.516 607.005,910.843 C 607.032,924.464 607.024,936.445 607.244,949.963 C 607.341,955.964 608.164,964.343 607.487,968.644 C 606.908,972.323 602.479,978.407 599.836,979.853 C 595.684,982.127 576.963,981.8 574.024,979.563 C 571.627,977.737 569.499,972.025 568.624,969.723 C 567.133,965.797 568.512,959.827 568.571,955.557 C 568.676,947.844 568.577,939.832 568.577,932.003 C 568.577,895.523 568.577,859.039 568.577,822.559 C 568.577,805.385 568.577,788.212 568.577,771.04 Z "/>
		<path id="dp_path003" fill="#b7b7b7" fill-rule="evenodd" stroke="black" stroke-width="1.33333" d="M 557.412,194.049 L 587.773,78.68 L 616.109,194.049 L 616.109,736.488 L 557.412,736.488 Z "/>
		<path id="dp_path004" fill="#7a7a7a" fill-rule="evenodd" d="M 608.653,198.696 C 604.3,207.765 591.229,232.641 590.737,236.304 C 589.455,245.848 590.844,261.532 590.844,274.683 C 590.844,310.623 590.844,346.563 590.844,382.503 C 590.844,505.297 590.844,628.095 590.844,750.888 C 596.781,750.888 602.717,750.888 608.653,750.888 C 608.653,567.095 608.653,383.305 608.653,199.513 C 608.653,199.241 608.653,198.967 608.653,198.696 Z "/>
		<path id="dp_path005" fill="black" fill-rule="evenodd" d="M 567.201,796.284 C 567.201,795.661 567.192,789.461 567.201,789.452 C 567.392,789.261 569.08,788.748 569.451,788.608 C 571.781,787.728 574.116,786.855 576.451,785.98 C 585.869,782.452 595.292,778.925 604.701,775.372 C 605.449,777.369 606.199,779.367 606.951,781.36 C 593.695,786.323 580.44,791.284 567.201,796.284 Z "/>
		<path id="dp_path006" fill="#3d3d3d" fill-rule="evenodd" stroke="black" stroke-width="1.33333" d="M 565.285,751.169 L 611.839,751.169 L 618.6,763.467 L 611.839,779.505 L 565.285,779.505 L 556.6,762.467 Z "/>
		<path id="dp_path007" fill="#d6d6d6" fill-rule="evenodd" d="M 565.412,195.496 C 570.236,204.545 584.724,229.368 585.269,233.023 C 586.691,242.545 585.151,258.195 585.151,271.317 C 585.151,307.179 585.151,343.041 585.151,378.903 C 585.151,501.431 585.151,623.961 585.151,746.488 C 578.571,746.488 571.991,746.488 565.412,746.488 C 565.412,563.095 565.412,379.704 565.412,196.312 C 565.412,196.04 565.412,195.767 565.412,195.496 Z "/>
		<path id="dp_path008" fill="#d6d6d6" fill-rule="evenodd" d="M 567.771,192.519 C 573.535,161.656 579.289,130.785 585.199,99.9787 C 585.199,141.252 585.199,182.525 585.199,223.797 C 581.12,216.745 577.032,209.704 572.952,202.656 C 571.255,199.725 568.96,196.329 567.9,194.051 C 567.576,193.355 567.76,192.852 567.771,192.519 Z "/>
		<path id="dp_path009" fill="#7a7a7a" fill-rule="evenodd" d="M 607.157,196.852 C 601.364,205.772 595.348,215.037 589.563,223.981 C 589.563,198.028 589.819,169.836 589.549,145.301 C 589.475,138.488 589.181,130.247 589.037,123.2 C 588.885,115.761 588.759,110.493 589.183,102.74 C 589.321,100.189 589.444,98.8293 589.679,97.0307 C 589.768,96.3573 589.615,95.2653 590.055,95.048 C 590.241,95.0653 590.304,95.48 590.371,95.74 C 590.467,96.116 590.531,96.4013 590.591,96.6867 C 590.777,97.5787 590.956,98.5773 591.268,100.545 C 592.196,106.369 593.211,112.636 594.244,118.875 C 598.531,144.741 602.841,171.117 607.157,196.852 Z "/>
		<path id="dp_path010" fill="#999999" fill-rule="evenodd" stroke="black" stroke-width="2" d="M 658.467,730.224 C 669.089,736.357 679.713,742.491 690.333,748.623 C 684.467,758.784 678.6,768.945 672.733,779.107 C 664.625,774.425 656.519,769.745 648.413,765.065 L 528.42,765.065 C 523.135,770.349 517.849,775.635 512.565,780.92 C 503.891,772.247 495.217,763.572 486.545,754.9 C 494.841,746.604 503.139,738.307 511.435,730.011 C 511.623,730.197 511.811,730.385 511.999,730.575 L 511.999,729.865 L 658.399,729.865 L 658.399,730.341 C 658.421,730.301 658.444,730.263 658.467,730.224 Z "/>
		<path id="dp_path011" fill="#7a7a7a" fill-rule="evenodd" d="M 650.399,736.265 C 650.399,744.404 650.399,752.541 650.399,760.679 C 649.56,760.395 648.615,760.205 647.815,760.157 C 644.38,759.955 643.187,760.251 639.735,760.28 C 630.529,760.357 621.32,760.28 612.116,760.28 C 585.677,760.28 559.239,760.28 532.801,760.28 C 532.801,752.275 532.801,744.269 532.801,736.265 C 572.001,736.265 611.2,736.265 650.399,736.265 Z "/>
		<path id="dp_path012" fill="#7a7a7a" fill-rule="evenodd" d="M 659.921,737.335 C 667.655,741.848 675.501,746.429 683.457,751.12 C 679.143,758.744 674.796,766.349 670.459,773.961 C 666.015,771.353 661.348,768.789 657.06,766.108 C 656.164,765.548 655.457,765.003 654.663,764.497 C 654.401,764.331 653.735,764.093 653.601,763.88 C 653.453,763.644 653.601,739.584 653.601,737.065 C 654.973,737.065 656.344,737.065 657.713,737.065 C 658.12,737.065 658.345,737.083 659.028,737.031 C 659.247,737.015 659.245,736.967 659.664,737.016 C 659.999,737.056 659.907,737.356 659.921,737.335 Z "/>
		<path id="dp_path013" fill="#7a7a7a" fill-rule="evenodd" d="M 526.399,736.265 C 526.399,745.057 526.399,753.849 526.399,762.64 C 526.153,762.64 525.701,762.56 525.473,762.64 C 525.115,762.765 523.071,765.077 522.641,765.513 C 519.684,768.516 516.721,771.52 513.763,774.52 C 507.355,768.021 500.952,761.52 494.545,755.024 C 500.675,748.807 506.8,742.589 512.928,736.375 C 513.067,736.516 513.205,736.656 513.344,736.797 C 513.424,736.639 513.344,736.443 513.344,736.265 C 514.344,736.265 515.337,736.265 516.335,736.265 C 519.689,736.265 523.044,736.265 526.399,736.265 Z "/>
		<path id="dp_path014" fill="black" fill-rule="evenodd" d="M 567.203,809.884 C 567.203,808.14 567.199,806.385 567.199,804.655 C 567.199,803.875 567.088,802.899 567.203,802.159 C 567.217,802.064 567.657,801.921 567.991,801.803 C 568.368,801.668 568.44,801.645 568.813,801.519 C 571.119,800.736 573.855,799.659 576.605,798.628 C 587.048,794.715 597.615,790.751 608.073,786.815 C 608.073,787.515 608.077,794.531 608.073,794.535 C 607.851,794.757 605.941,795.332 605.515,795.492 C 602.849,796.492 600.176,797.488 597.412,798.527 C 587.099,802.403 577.247,806.065 567.203,809.884 Z "/>
		<path id="dp_path015" fill="black" fill-rule="evenodd" d="M 567.457,822.129 C 567.457,820.385 567.453,818.631 567.453,816.9 C 567.453,816.12 567.343,815.144 567.457,814.404 C 567.472,814.309 567.912,814.167 568.245,814.048 C 568.623,813.913 568.695,813.891 569.068,813.764 C 571.373,812.981 574.109,811.904 576.86,810.873 C 587.303,806.96 597.869,802.996 608.328,799.06 C 608.328,799.76 608.332,806.776 608.328,806.78 C 608.105,807.003 606.196,807.577 605.769,807.737 C 603.104,808.737 600.431,809.733 597.667,810.772 C 587.353,814.648 577.501,818.311 567.457,822.129 Z "/>
		<path id="dp_path016" fill="black" fill-rule="evenodd" d="M 567.203,834.884 C 567.203,833.14 567.199,831.385 567.199,829.655 C 567.199,828.875 567.088,827.899 567.203,827.159 C 567.217,827.064 567.657,826.921 567.991,826.803 C 568.368,826.668 568.44,826.645 568.813,826.519 C 571.119,825.736 573.855,824.659 576.605,823.628 C 587.048,819.715 597.615,815.751 608.073,811.815 C 608.073,812.515 608.077,819.531 608.073,819.535 C 607.851,819.757 605.941,820.332 605.515,820.492 C 602.849,821.492 600.176,822.488 597.412,823.527 C 587.099,827.403 577.247,831.065 567.203,834.884 Z "/>
		<path id="dp_path017" fill="black" fill-rule="evenodd" d="M 566.948,847.895 C 566.948,846.151 566.944,844.396 566.944,842.665 C 566.944,841.885 566.833,840.909 566.948,840.169 C 566.963,840.075 567.403,839.932 567.736,839.813 C 568.113,839.679 568.185,839.656 568.559,839.529 C 570.864,838.747 573.6,837.669 576.351,836.639 C 586.793,832.725 597.36,828.761 607.819,824.825 C 607.819,825.525 607.823,832.541 607.819,832.545 C 607.596,832.768 605.687,833.343 605.26,833.503 C 602.595,834.503 599.921,835.499 597.157,836.537 C 586.844,840.413 576.992,844.076 566.948,847.895 Z "/>
		<path id="dp_path018" fill="black" fill-rule="evenodd" d="M 566.948,859.629 C 566.948,857.885 566.944,856.131 566.944,854.4 C 566.944,853.62 566.833,852.644 566.948,851.904 C 566.963,851.809 567.403,851.667 567.736,851.548 C 568.113,851.413 568.185,851.391 568.559,851.264 C 570.864,850.481 573.6,849.404 576.351,848.373 C 586.793,844.46 597.36,840.496 607.819,836.56 C 607.819,837.26 607.823,844.276 607.819,844.28 C 607.596,844.503 605.687,845.077 605.26,845.237 C 602.595,846.237 599.921,847.233 597.157,848.272 C 586.844,852.148 576.992,855.811 566.948,859.629 Z "/>
		<path id="dp_path019" fill="black" fill-rule="evenodd" d="M 567.203,870.344 C 567.203,868.6 567.199,866.845 567.199,865.115 C 567.199,864.335 567.088,863.359 567.203,862.619 C 567.217,862.524 567.657,862.381 567.991,862.263 C 568.368,862.128 568.44,862.105 568.813,861.979 C 571.119,861.196 573.855,860.119 576.605,859.088 C 587.048,855.175 597.615,851.211 608.073,847.275 C 608.073,847.975 608.077,854.991 608.073,854.995 C 607.851,855.217 605.941,855.792 605.515,855.952 C 602.849,856.952 600.176,857.948 597.412,858.987 C 587.099,862.863 577.247,866.525 567.203,870.344 Z "/>
		<path id="dp_path020" fill="black" fill-rule="evenodd" d="M 566.692,881.824 C 566.692,880.08 566.688,878.325 566.688,876.595 C 566.688,875.815 566.577,874.839 566.692,874.099 C 566.707,874.004 567.147,873.861 567.48,873.743 C 567.857,873.608 567.929,873.585 568.303,873.459 C 570.608,872.676 573.344,871.599 576.095,870.568 C 586.537,866.655 597.104,862.691 607.563,858.755 C 607.563,859.455 607.567,866.471 607.563,866.475 C 607.34,866.697 605.431,867.272 605.004,867.432 C 602.339,868.432 599.665,869.428 596.901,870.467 C 586.588,874.343 576.736,878.005 566.692,881.824 Z "/>
		<path id="dp_path021" fill="black" fill-rule="evenodd" d="M 567.203,892.539 C 567.203,890.795 567.199,889.04 567.199,887.309 C 567.199,886.529 567.088,885.553 567.203,884.813 C 567.217,884.719 567.657,884.576 567.991,884.457 C 568.368,884.323 568.44,884.3 568.813,884.173 C 571.119,883.391 573.855,882.313 576.605,881.283 C 587.048,877.369 597.615,873.405 608.073,869.469 C 608.073,870.169 608.077,877.185 608.073,877.189 C 607.851,877.412 605.941,877.987 605.515,878.147 C 602.849,879.147 600.176,880.143 597.412,881.181 C 587.099,885.057 577.247,888.72 567.203,892.539 Z "/>
		<path id="dp_path022" fill="black" fill-rule="evenodd" d="M 567.459,903.253 C 567.459,901.509 567.455,899.755 567.455,898.024 C 567.455,897.244 567.344,896.268 567.459,895.528 C 567.473,895.433 567.913,895.291 568.247,895.172 C 568.624,895.037 568.696,895.015 569.069,894.888 C 571.375,894.105 574.111,893.028 576.861,891.997 C 587.304,888.084 597.871,884.12 608.329,880.184 C 608.329,880.884 608.333,887.9 608.329,887.904 C 608.107,888.127 606.197,888.701 605.771,888.861 C 603.105,889.861 600.432,890.857 597.668,891.896 C 587.355,895.772 577.503,899.435 567.459,903.253 Z "/>
		<path id="dp_path023" fill="black" fill-rule="evenodd" d="M 567.713,914.477 C 567.713,912.733 567.709,910.979 567.709,909.248 C 567.709,908.468 567.599,907.492 567.713,906.752 C 567.728,906.657 568.168,906.515 568.501,906.396 C 568.879,906.261 568.951,906.239 569.324,906.112 C 571.629,905.329 574.365,904.252 577.116,903.221 C 587.559,899.308 598.125,895.344 608.584,891.408 C 608.584,892.108 608.588,899.124 608.584,899.128 C 608.361,899.351 606.452,899.925 606.025,900.085 C 603.36,901.085 600.687,902.081 597.923,903.12 C 587.609,906.996 577.757,910.659 567.713,914.477 Z "/>
		<path id="dp_path024" fill="black" fill-rule="evenodd" d="M 567.459,926.721 C 567.459,924.977 567.455,923.223 567.455,921.492 C 567.455,920.712 567.344,919.736 567.459,918.996 C 567.473,918.901 567.913,918.759 568.247,918.64 C 568.624,918.505 568.696,918.483 569.069,918.356 C 571.375,917.573 574.111,916.496 576.861,915.465 C 587.304,911.552 597.871,907.588 608.329,903.652 C 608.329,904.352 608.333,911.368 608.329,911.372 C 608.107,911.595 606.197,912.169 605.771,912.329 C 603.105,913.329 600.432,914.325 597.668,915.364 C 587.355,919.24 577.503,922.903 567.459,926.721 Z "/>
		<path id="dp_path025" fill="black" fill-rule="evenodd" d="M 567.204,938.201 C 567.204,936.457 567.2,934.703 567.2,932.972 C 567.2,932.192 567.089,931.216 567.204,930.476 C 567.219,930.381 567.659,930.239 567.992,930.12 C 568.369,929.985 568.441,929.963 568.815,929.836 C 571.12,929.053 573.856,927.976 576.607,926.945 C 587.049,923.032 597.616,919.068 608.075,915.132 C 608.075,915.832 608.079,922.848 608.075,922.852 C 607.852,923.075 605.943,923.649 605.516,923.809 C 602.851,924.809 600.177,925.805 597.413,926.844 C 587.1,930.72 577.248,934.383 567.204,938.201 Z "/>
		<path id="dp_path026" fill="black" fill-rule="evenodd" d="M 567.204,948.916 C 567.204,947.172 567.2,945.417 567.2,943.687 C 567.2,942.907 567.089,941.931 567.204,941.191 C 567.219,941.096 567.659,940.953 567.992,940.835 C 568.369,940.7 568.441,940.677 568.815,940.551 C 571.12,939.768 573.856,938.691 576.607,937.66 C 587.049,933.747 597.616,929.783 608.075,925.847 C 608.075,926.547 608.079,933.563 608.075,933.567 C 607.852,933.789 605.943,934.364 605.516,934.524 C 602.851,935.524 600.177,936.52 597.413,937.559 C 587.1,941.435 577.248,945.097 567.204,948.916 Z "/>
		<path id="dp_path027" fill="black" fill-rule="evenodd" d="M 566.948,959.376 C 566.948,957.632 566.944,955.877 566.944,954.147 C 566.944,953.367 566.833,952.391 566.948,951.651 C 566.963,951.556 567.403,951.413 567.736,951.295 C 568.113,951.16 568.185,951.137 568.559,951.011 C 570.864,950.228 573.6,949.151 576.351,948.12 C 586.793,944.207 597.36,940.243 607.819,936.307 C 607.819,937.007 607.823,944.023 607.819,944.027 C 607.596,944.249 605.687,944.824 605.26,944.984 C 602.595,945.984 599.921,946.98 597.157,948.019 C 586.844,951.895 576.992,955.557 566.948,959.376 Z "/>
		<path id="dp_path028" fill="black" fill-rule="evenodd" d="M 567.203,969.325 C 567.203,967.581 567.199,965.827 567.199,964.096 C 567.199,963.316 567.088,962.34 567.203,961.6 C 567.217,961.505 567.657,961.363 567.991,961.244 C 568.368,961.109 568.44,961.087 568.813,960.96 C 571.119,960.177 573.855,959.1 576.605,958.069 C 587.048,954.156 597.615,950.192 608.073,946.256 C 608.073,946.956 608.077,953.972 608.073,953.976 C 607.851,954.199 605.941,954.773 605.515,954.933 C 602.849,955.933 600.176,956.929 597.412,957.968 C 587.099,961.844 577.247,965.507 567.203,969.325 Z "/>
		<path id="dp_path029" fill="black" fill-rule="evenodd" d="M 570.992,977.52 C 570.237,976.171 569.485,974.827 568.732,973.479 C 568.384,972.855 567.952,972.229 567.667,971.576 C 567.607,971.439 567.669,971.14 567.721,971.02 C 568.035,970.727 568.509,970.677 568.915,970.537 C 569.543,970.32 569.781,970.244 570.513,969.983 C 572.136,969.404 574.095,968.648 576.344,967.8 C 587.079,963.753 597.84,959.745 608.584,955.695 C 608.584,957.437 608.585,959.193 608.585,960.923 C 608.585,961.713 608.719,962.637 608.584,963.415 C 608.567,963.515 608.113,963.659 607.789,963.773 C 607.653,963.821 607.517,963.869 607.381,963.917 C 605.691,964.515 602.163,965.817 599.712,966.736 C 590.475,970.199 579.772,974.203 570.992,977.52 Z "/>
		<path id="dp_path030" fill="black" fill-rule="evenodd" d="M 576.016,982.071 C 575.443,981.852 573.432,981.337 573.288,981.128 C 572.944,980.628 572.651,980.096 572.341,979.573 C 572.209,979.351 571.759,978.983 571.999,978.279 C 572.536,977.693 573.292,977.712 573.537,977.629 C 574.069,977.451 574.277,977.376 575.203,977.043 C 576.484,976.581 578.023,975.996 579.667,975.373 C 588.953,971.856 599.229,968.045 608.699,964.471 C 608.701,964.656 608.924,968.92 608.699,969.449 C 608.431,970.08 607.988,970.597 607.984,970.604 C 607.801,970.908 607.565,971.157 607.328,971.487 C 607.288,971.541 606.953,972.065 606.836,972.259 C 606.708,972.469 606.808,972.599 606.275,973.068 C 605.961,973.343 605.708,973.368 605.496,973.441 C 605.161,973.557 604.847,973.656 604.525,973.763 C 603.953,973.952 603.136,974.264 602.437,974.525 C 599.232,975.724 596.043,976.917 592.872,978.105 C 589.565,979.344 586.257,980.585 582.983,981.816 C 582.251,982.091 579.721,983.201 579.308,983.203 C 578.86,983.204 576.676,982.313 576.016,982.071 Z "/>
	</g>
</svg>